<?xml version="1.0" encoding="utf-8"?>
<!-- Generator: Adobe Illustrator 24.0.3, SVG Export Plug-In . SVG Version: 6.00 Build 0)  -->
<svg version="1.1" id="Capa_1" xmlns="http://www.w3.org/2000/svg" xmlns:xlink="http://www.w3.org/1999/xlink" x="0px" y="0px"
	 viewBox="0 0 774.3 164.8" style="enable-background:new 0 0 774.3 164.8;" xml:space="preserve">
<g>
	<g>
		<path d="M112.2,127.1c0,0.4-0.2,0.8-0.6,1.2c-0.4,0.4-1,0.8-1.6,0.8h-4.5c0,0-0.2,0-0.8,0c-0.4,0-0.8-0.2-1.2-0.6
			c-0.4-0.4-0.6-1-0.6-2.1V124c-2.9,1.9-6,3.3-9.3,4.3c-3.3,1-6.6,1.4-9.7,1.4c-4.9,0-9.5-1.2-13.8-3.7c-4.3-2.5-8.2-6-11.5-10.5
			c-3.3-4.5-6-9.9-8-16.5c-2.1-6.4-2.9-13.6-2.9-21.6c0-8.2,1-15.2,2.9-21.2c2.1-6,4.7-10.9,8-15c3.3-3.9,7.2-7,11.5-8.9
			c4.3-2.1,9.1-2.9,13.8-2.9c4.3,0,8.6,0.8,13,2.5c4.1,1.6,7.8,4.1,11.3,7.4c0.8,1,0.8,2.1,0.2,2.7c-0.2,0.2-0.4,0.4-0.8,0.8
			c-0.4,0.4-0.6,0.6-1,1c-0.4,0.4-0.8,0.8-1.2,1.2c-0.4,0.4-0.6,0.6-0.8,0.8c-0.6,0.6-1.2,0.8-2.1,0.2c-2.5-3.1-5.6-5.4-8.9-6.4
			c-3.5-1.2-6.6-1.6-9.3-1.6c-2.9,0-6,0.8-9.1,2.5c-3.1,1.6-6,4.1-8.6,7.4c-2.7,3.3-4.7,7.4-6.4,12.4c-1.6,4.9-2.5,10.7-2.5,17.3
			c0,6.8,0.8,12.8,2.5,18.3c1.6,5.4,3.9,10.1,6.4,13.8c2.7,3.7,5.6,6.6,8.6,8.6c3.1,2.1,6.2,3.1,9.1,3.1c1.2,0,2.7-0.2,4.5-0.4
			c1.9-0.2,3.5-0.8,5.4-1.4c1.9-0.8,3.5-1.6,5.1-2.9c1.6-1.2,2.9-2.5,3.9-4.1V90c0-2.5-0.4-4.1-1.2-5.1c-0.8-1-1.6-1.6-2.5-1.6
			C98.6,83,98.2,83,98.2,83l-12.6,0.2c-1,0-1.6-0.2-2.1-0.6c-0.4-0.4-0.6-0.8-0.6-1.2c0-0.4,0-0.6,0-0.6v-4.5c0-0.8,0.2-1.4,0.8-1.9
			c0.4-0.4,0.8-0.6,1.2-0.6c0.4,0,0.6,0,0.8,0l13.4-0.2c2.9,0.2,5.1,1,7,2.1c1.6,1,3.3,2.9,4.7,5.4c1.4,2.5,2.1,6,2.1,10.5v35.6
			C112.2,126.4,112.2,126.7,112.2,127.1z"/>
		<path d="M173.6,126.9c0,0.4-0.2,0.8-0.6,1.2c-0.4,0.4-1,0.8-1.6,0.8h-4.7c0,0-0.2,0-0.8,0c-0.4,0-0.8-0.2-1.2-0.6
			c-0.4-0.4-0.6-1-0.6-2.1v-5.4l-0.6,0.4c-2.7,2.3-5.8,4.1-8.9,5.6c-3.1,1.4-6.4,2.3-9.7,2.3c-3.1,0-6.2-0.6-9.5-1.9
			c-3.3-1.2-6.4-3.3-9.1-6.2c-2.9-2.9-5.1-6.6-7-11.3s-2.7-10.3-2.7-17.3c0-7,0.8-13,2.7-17.5c1.9-4.7,4.1-8.4,7-11.3
			c2.9-2.9,6-4.7,9.3-6c3.3-1.2,6.6-1.6,9.7-1.6c2.1,0,4.1,0.2,6,0.8c2.1,0.4,3.9,1.2,5.6,2.1c1.6,0.8,3.3,1.6,4.9,2.7
			c1.4,1,2.7,2.1,3.9,2.9c1.4,1.2,2.9,2.5,3.7,3.5c1,1,1.9,2.3,2.7,3.5c0.8,1.2,1.2,2.7,1.2,3.9l0.4,50.9
			C173.8,126.2,173.8,126.4,173.6,126.9z M163.9,74.1c-1.9-1.6-3.3-3.1-4.9-4.3c-1.4-1.2-2.9-2.3-4.3-2.9s-2.9-1.2-4.1-1.6
			c-1.4-0.4-2.9-0.6-4.5-0.6c-6.2,0-10.9,2.3-14.6,7c-3.7,4.7-5.4,11.5-5.4,20.4c0,5.4,0.4,9.7,1.4,13.4s2.5,6.6,4.1,8.9
			c1.9,2.3,3.9,3.9,6.4,4.9c2.5,1,5.1,1.4,8,1.4s6-0.8,9.1-2.7s6-4.1,8.6-7L163.9,74.1L163.9,74.1z"/>
		<path d="M232.5,110c-1.9,4.7-4.1,8.4-7,11.1c-2.9,2.9-6,4.7-9.3,6c-3.5,1.2-6.6,1.6-9.7,1.6c-2.1,0-4.1-0.2-6.2-0.8
			c-2.1-0.4-3.7-1.2-5.6-2.1c-1.9-0.8-3.3-1.6-4.9-2.7c-1.4-1-2.7-1.9-3.9-2.9c-1.4-1.2-2.9-2.5-3.7-3.5c-1-1-1.9-2.3-2.7-3.5
			c-0.8-1.2-1.2-2.7-1.2-3.9l-0.4-75.8c0,0,0-0.2,0-0.8c0-0.4,0.2-0.8,0.6-1.2c0.4-0.4,1-0.8,1.9-0.8h4.5c0,0,0.2,0,0.6,0
			c0.4,0,0.8,0.2,1.2,0.6c0.4,0.4,0.6,1,0.6,2.1v30.9l0.6-0.4c2.9-2.3,5.8-4.1,8.9-5.6c3.1-1.4,6.4-2.3,9.7-2.3c2.9,0,6,0.6,9.5,1.9
			c3.3,1.2,6.4,3.3,9.3,6.2s5.1,6.6,7,11.3c1.9,4.7,2.7,10.3,2.7,17.3C235.4,99.5,234.4,105.4,232.5,110z M224.1,79.7
			c-1-3.7-2.5-6.6-4.1-8.9c-1.9-2.3-3.9-3.9-6.4-4.9c-2.5-1-5.1-1.4-7.8-1.4s-6,0.8-9.1,2.7c-3.1,1.9-6,4.1-8.6,7V111
			c3.5,3.5,6.6,6,9.1,7.2c2.7,1.4,5.6,2.1,8.6,2.1c6.2,0,11.1-2.3,14.6-7s5.4-11.5,5.4-20.4C225.5,87.7,225.1,83.4,224.1,79.7z"/>
		<path d="M279.9,65.9c-0.4,0.6-1,1-1.4,1c-0.6,0-1,0-1.4-0.2c-0.4-0.2-0.6-0.2-0.6-0.2c-1.2-0.8-2.7-1.2-4.3-1.6
			c-1.4-0.4-3.1-0.6-4.9-0.6c-2.5,0-4.7,0.4-7,1.4c-2.1,1-4.5,2.5-7,4.5c0,0-0.4,0.4-1,0.8c-0.6,0.4-1.2,1.2-1.9,2.5
			c-0.6,1.2-1,2.7-1,4.5v48.2c0,0.8-0.2,1.4-0.6,1.9c-0.4,0.4-0.8,0.6-1.2,0.6c-0.4,0-0.6,0-0.6,0h-4.5c-0.8,0-1.4-0.2-1.9-0.8
			c-0.4-0.4-0.6-0.8-0.6-1.2c0-0.4,0-0.6,0-0.8V78.7c0-2.5,0.4-4.7,1.2-6.6c0.8-1.9,1.6-3.5,2.7-4.7c1-1.2,2.3-2.5,3.9-3.7
			c1-1,2.3-1.9,3.9-2.9c1.4-1,3.1-1.9,4.9-2.7c1.6-0.8,3.7-1.4,5.6-2.1c1.9-0.4,3.9-0.8,6.2-0.8c1.4,0,3.3,0.2,5.6,0.4
			c2.3,0.4,4.5,1.2,6.8,2.5l0.4,0.2c0.6,0.4,1,1,1,1.6c0,0.6,0,1.2-0.2,1.4c-0.2,0.4-0.2,0.6-0.2,0.6L279.9,65.9z"/>
		<path d="M295.9,46.7c0,0.8-0.2,1.4-0.6,1.9c-0.4,0.4-0.8,0.6-1.2,0.6s-0.6,0-0.6,0h-4.5c-0.8,0-1.4-0.2-1.9-0.6
			c-0.4-0.4-0.6-0.8-0.6-1.2c0-0.4,0-0.6,0-0.6v-3.1c0-0.8,0.2-1.4,0.6-1.9c0.4-0.4,0.8-0.6,1.2-0.6c0.4,0,0.6,0,0.6,0h4.5
			c0.8,0,1.4,0.2,1.9,0.6c0.4,0.4,0.6,0.8,0.6,1.2c0,0.4,0,0.6,0,0.6V46.7z M295.9,126.2c0,0.8-0.2,1.4-0.6,1.9
			c-0.4,0.4-0.8,0.6-1.2,0.6s-0.6,0-0.6,0h-4.5c-0.8,0-1.4-0.2-1.9-0.8c-0.4-0.4-0.6-0.8-0.6-1.2s0-0.6,0-0.8V58.7
			c0-1,0.2-1.6,0.6-2.1c0.4-0.4,0.8-0.6,1.2-0.6c0.4,0,0.6,0,0.6,0h4.5c0.8,0,1.4,0.2,1.6,0.8c0.4,0.4,0.6,0.8,0.6,1.2
			c0,0.4,0.2,0.6,0.2,0.8V126.2z"/>
		<path d="M358.3,94.5c0,0.8,0,1.4,0,2.1c0,0.4,0,0.8,0,0.8c0,0.8-0.2,1.4-0.8,1.6c-0.4,0.4-0.8,0.6-1.2,0.6s-0.6,0-0.8,0h-44.7
			c0.8,6.8,2.9,11.9,6.2,15.4c3.3,3.5,7.4,5.4,12.4,5.4c1,0,2.3,0,3.5-0.2c1.2-0.2,2.5-0.4,3.5-0.8c1.2-0.4,2.3-0.8,3.3-1.2
			s1.6-1.2,2.3-1.9c0.4-0.6,1.2-1,2.3-1.2h6.8c0,0,0.2,0,0.6,0c0.2,0,0.6,0.2,0.8,0.8c0.2,0.4,0,1.2-0.4,2.5
			c-0.6,1.2-1.6,2.7-3.1,3.9c-1.4,1.2-3.3,2.5-5.1,3.5c-2.1,1-4.1,1.9-6.6,2.5c-2.5,0.6-4.9,1-7.4,1c-4.9,0-9.1-1-12.6-2.9
			c-3.5-1.9-6.6-4.5-9.1-7.8c-2.5-3.3-4.1-7.2-5.4-11.5c-1.2-4.5-1.9-9.3-1.9-14.2c0-5.1,0.6-9.9,1.9-14.2c1.2-4.5,3.1-8.4,5.4-11.7
			c2.5-3.3,5.4-6,9.1-7.8c3.5-1.9,7.8-2.9,12.6-2.9c4.9,0,9.1,1,12.6,2.9s6.6,4.5,9.1,7.8c2.5,3.3,4.3,7.2,5.4,11.7
			c1.2,4.5,1.9,9.3,1.9,14.2C358.3,93.1,358.3,93.7,358.3,94.5z M342.9,71.3c-3.3-4.5-7.8-6.8-13.6-6.8c-5.6,0-10.1,2.3-13.4,6.8
			c-3.3,4.5-5.1,10.9-5.6,19.4h38.1C348.2,82.2,346.4,75.8,342.9,71.3z"/>
		<path d="M375.4,127.9c0,0-0.2,0.2-0.6,0.6c-0.2,0.2-0.8,0.6-1.2,0.8c-0.4,0.2-1.2,0.2-1.9-0.2c-0.2-0.2-0.4-0.4-0.4-0.4
			c-1.9-1.4-3.3-2.9-4.3-4.3s-2.1-3.1-2.9-5.1c-0.8-2.1-1.4-4.3-1.4-6.8V33.6c0,0,0-0.2,0-0.8c0-0.4,0.2-0.8,0.6-1.2
			c0.4-0.4,1-0.8,1.9-0.8h4.5c0,0,0.2,0,0.6,0c0.4,0,0.8,0.2,1.2,0.6c0.4,0.4,0.6,1,0.6,2.1v80.3c0,1.9,0.4,3.3,1,4.5
			c0.8,1.2,1.4,2.1,2.1,2.5s1,0.8,1,0.8s0.2,0.2,0.6,0.4c0.2,0.2,0.6,0.8,0.8,1.2c0.2,0.6,0.2,1.2-0.2,1.9L375.4,127.9z"/>
		<path d="M474.9,70.6c-2.1,3.3-4.7,6-8.2,8c3.5,2.3,6.2,5.4,8.2,9.1c1.9,3.7,2.9,7.8,2.9,12.6c0,6.6-0.8,11.9-2.7,15.9
			c-1.9,3.9-4.1,6.8-7,8.6c-2.9,2.1-6,3.1-9.5,3.7c-3.5,0.4-6.6,0.8-9.7,0.8l-20.4-0.2c-2.5,0-4.3-0.6-5.4-1.6c-1-1-1.6-2.1-1.9-3.1
			c-0.2-1-0.2-1.4-0.2-1.6V39.5c0-2.3,0.4-3.9,1.4-5.1c1-1.2,2.1-2.1,3.1-2.7c1.2-0.4,2.7-0.8,4.5-0.8l18.7-0.2c3.1,0,6.4,0.2,9.7,1
			c3.5,0.6,6.6,1.9,9.5,3.9c2.9,2.1,5.1,4.7,7,8.4c1.9,3.7,2.7,8.4,2.7,14.4C478,63.2,477,67.1,474.9,70.6z M466.9,48.8
			c-1-2.3-2.3-4.1-3.9-5.6s-3.9-2.5-6.2-3.1c-2.5-0.6-5.1-1-8.2-1l-15.7-0.2c0,0-0.2,0-0.4,0c-0.2,0-0.6,0.2-0.8,0.4
			c-0.4,0.2-0.4,0.8-0.4,1.4v32.5h17.5c2.5,0,4.9-0.2,7.4-0.8c2.5-0.4,4.5-1.2,6.4-2.5c1.9-1.2,3.5-2.9,4.5-4.9
			c1.2-2.1,1.6-4.9,1.6-8.2C468.3,54,467.7,51.1,466.9,48.8z M466.2,92.3c-1.2-2.3-2.7-4.3-4.5-5.8c-1.9-1.4-3.9-2.5-6.4-3.3
			c-2.5-0.8-4.7-1-7.4-1h-17.5v36c0,0.6,0.2,1,0.4,1.4c0.2,0.2,0.6,0.4,0.8,0.4c0.2,0,0.4,0,0.4,0l15.7,0.2c6.2,0,11.1-1.6,14.6-4.7
			c3.5-3.3,5.4-8.2,5.4-14.8C468.1,97.4,467.5,94.5,466.2,92.3z"/>
		<path d="M540,94.5c0,0.8,0,1.4,0,2.1c0,0.4,0,0.8,0,0.8c0,0.8-0.2,1.4-0.8,1.6c-0.4,0.4-0.8,0.6-1.2,0.6s-0.6,0-0.8,0h-44.7
			c0.8,6.8,2.9,11.9,6.2,15.4c3.3,3.5,7.4,5.4,12.4,5.4c1,0,2.3,0,3.5-0.2c1.2-0.2,2.5-0.4,3.5-0.8c1.2-0.4,2.3-0.8,3.3-1.2
			s1.6-1.2,2.3-1.9c0.4-0.6,1.2-1,2.3-1.2h6.8c0,0,0.2,0,0.6,0c0.2,0,0.6,0.2,0.8,0.8c0.2,0.4,0,1.2-0.4,2.5
			c-0.6,1.2-1.6,2.7-3.1,3.9c-1.4,1.2-3.3,2.5-5.1,3.5s-4.1,1.9-6.6,2.5c-2.5,0.6-4.9,1-7.4,1c-4.9,0-9.1-1-12.6-2.9
			c-3.5-1.9-6.6-4.5-9.1-7.8c-2.5-3.3-4.1-7.2-5.4-11.5c-1.2-4.5-1.9-9.3-1.9-14.2c0-5.1,0.6-9.9,1.9-14.2c1.2-4.5,3.1-8.4,5.4-11.7
			c2.5-3.3,5.4-6,9.1-7.8c3.5-1.9,7.8-2.9,12.6-2.9s9.1,1,12.6,2.9c3.5,1.9,6.6,4.5,9.1,7.8c2.5,3.3,4.3,7.2,5.4,11.7
			c1.2,4.5,1.9,9.3,1.9,14.2C540.2,93.1,540.2,93.7,540,94.5z M524.7,71.3c-3.3-4.5-7.8-6.8-13.6-6.8c-5.6,0-10.1,2.3-13.4,6.8
			c-3.3,4.5-5.1,10.9-5.6,19.4h38.1C529.9,82.2,528,75.8,524.7,71.3z"/>
		<path d="M584.7,65.9c-0.4,0.6-1,1-1.4,1c-0.6,0-1,0-1.4-0.2c-0.4-0.2-0.6-0.2-0.6-0.2c-1.2-0.8-2.7-1.2-4.3-1.6
			c-1.4-0.4-3.1-0.6-4.9-0.6c-2.5,0-4.7,0.4-7,1.4c-2.1,1-4.5,2.5-7,4.5c0,0-0.4,0.4-1,0.8c-0.6,0.4-1.2,1.2-1.9,2.5
			c-0.6,1.2-1,2.7-1,4.5v48.2c0,0.8-0.2,1.4-0.6,1.9c-0.4,0.4-0.8,0.6-1.2,0.6s-0.6,0-0.6,0H547c-0.8,0-1.4-0.2-1.9-0.8
			c-0.4-0.4-0.6-0.8-0.6-1.2c0-0.4,0-0.6,0-0.8V78.7c0-2.5,0.4-4.7,1.2-6.6c0.8-1.9,1.6-3.5,2.7-4.7c1-1.2,2.3-2.5,3.9-3.7
			c1-1,2.5-1.9,3.9-2.9c1.4-1,3.1-1.9,4.9-2.7c1.6-0.8,3.7-1.4,5.6-2.1c1.9-0.4,3.9-0.8,6.2-0.8c1.4,0,3.3,0.2,5.6,0.4
			c2.3,0.4,4.5,1.2,6.8,2.5l0.4,0.2c0.6,0.4,1,1,1,1.6c0,0.6,0,1.2-0.2,1.4c-0.2,0.4-0.2,0.6-0.2,0.6L584.7,65.9z"/>
		<path d="M647.9,126.2c0,1-0.2,1.6-0.6,2.1c-0.4,0.4-0.8,0.6-1.2,0.6c-0.4,0-0.6,0-0.8,0h-4.5c-0.8,0-1.4-0.2-1.9-0.8
			c-0.4-0.4-0.6-1-0.6-1.4s0-0.6,0-0.8V91.6c0-5.1-0.4-9.5-1.4-13c-1-3.5-2.5-6.4-4.1-8.6c-1.9-2.3-3.9-3.7-6.4-4.7
			c-2.5-1-4.9-1.4-7.8-1.4c-2.9,0-6,0.8-9.1,2.7s-6,4.1-8.6,7V126c0,1-0.2,1.6-0.6,2.1c-0.4,0.4-0.8,0.6-1.2,0.6c-0.4,0-0.6,0-0.8,0
			h-4.3c-0.8,0-1.4-0.2-1.9-0.8c-0.4-0.4-0.6-0.8-0.6-1.2s0-0.6,0-0.8l0.2-66.9c0,0,0-0.2,0-0.8c0-0.4,0.2-0.8,0.6-1.2
			c0.4-0.4,1-0.8,1.9-0.8h4.1c0,0,0.2,0,0.8,0c0.4,0,0.8,0.2,1.2,0.6c0.4,0.4,0.6,1,0.6,2.1v4.7l0.6-0.2c2.7-2.3,5.6-4.1,8.9-5.8
			c3.1-1.4,6.4-2.3,9.7-2.3c2.9,0,6,0.6,9.5,1.9c3.3,1.2,6.4,3.3,9.3,6.2c2.9,2.9,5.1,6.6,7,11.3c1.9,4.5,2.7,10.3,2.7,17.1
			L647.9,126.2L647.9,126.2z"/>
		<path d="M709.5,126.9c0,0.4-0.2,0.8-0.6,1.2c-0.4,0.4-1,0.8-1.6,0.8h-4.5c0,0-0.2,0-0.8,0c-0.4,0-0.8-0.2-1.2-0.6
			c-0.4-0.4-0.6-1-0.6-2.1v-5.4l-0.6,0.4c-2.7,2.3-5.8,4.1-8.9,5.6c-3.1,1.4-6.4,2.3-9.7,2.3c-3.1,0-6.2-0.6-9.5-1.9
			c-3.3-1.2-6.4-3.3-9.1-6.2c-2.9-2.9-5.1-6.6-7-11.3s-2.7-10.3-2.7-17.3c0-7,0.8-13,2.7-17.5c1.9-4.7,4.1-8.4,7-11.3
			c2.9-2.9,6-4.7,9.3-6s6.6-1.6,9.7-1.6c2.1,0,4.1,0.2,6,0.8c2.1,0.4,3.9,1.2,5.6,2.1c1.6,0.8,3.3,1.6,4.9,2.7
			c1.4,1,2.7,2.1,3.9,2.9c1.4,1.2,2.7,2.5,3.7,3.5c1,1,1.9,2.3,2.7,3.5c0.8,1.2,1.2,2.7,1.2,3.9l0.4,50.9
			C709.5,126.2,709.5,126.4,709.5,126.9z M699.8,74.1c-1.9-1.6-3.3-3.1-4.9-4.3c-1.4-1.2-2.9-2.3-4.3-2.9c-1.4-0.6-2.9-1.2-4.1-1.6
			c-1.4-0.4-2.9-0.6-4.3-0.6c-6.2,0-10.9,2.3-14.6,7c-3.7,4.7-5.4,11.5-5.4,20.4c0,5.4,0.4,9.7,1.4,13.4c1,3.7,2.5,6.6,4.1,8.9
			c1.9,2.3,3.9,3.9,6.4,4.9c2.5,1,5.1,1.4,8,1.4c2.9,0,6-0.8,9.1-2.7c3.1-1.9,6-4.1,8.6-7L699.8,74.1L699.8,74.1z"/>
		<path d="M726.6,127.9c0,0-0.2,0.2-0.6,0.6c-0.2,0.2-0.8,0.6-1.2,0.8c-0.4,0.2-1.2,0.2-1.9-0.2c-0.2-0.2-0.4-0.4-0.4-0.4
			c-1.9-1.4-3.3-2.9-4.3-4.3c-1-1.4-2.1-3.1-2.9-5.1c-0.8-2.1-1.4-4.3-1.4-6.8V33.6c0,0,0-0.2,0-0.8c0-0.4,0.2-0.8,0.6-1.2
			c0.4-0.4,1-0.8,1.9-0.8h4.5c0,0,0.2,0,0.6,0c0.4,0,0.8,0.2,1.2,0.6c0.4,0.4,0.6,1,0.6,2.1v80.3c0,1.9,0.4,3.3,1,4.5
			c0.8,1.2,1.4,2.1,2.1,2.5s1,0.8,1,0.8s0.2,0.2,0.6,0.4c0.2,0.2,0.6,0.8,0.8,1.2c0.2,0.6,0.2,1.2-0.2,1.9L726.6,127.9z"/>
	</g>
	<g>
		<path d="M764,10.3v144.2H10.3V10.3H764 M774.3,0H0v164.8h774.3V0L774.3,0z"/>
	</g>
</g>
</svg>
